<svg width="29" height="126" viewBox="0 0 29 126" fill="none" xmlns="http://www.w3.org/2000/svg">
<path fill-rule="evenodd" clip-rule="evenodd" d="M9.22726 121.865C12.7928 119.996 16.7435 118.679 20.1889 116.673C20.2409 116.4 20.3362 115.844 20.3777 115.57C17.318 113.573 13.8541 116.228 10.95 117.105C14.0362 111.294 18.6276 106.067 20.6103 99.844C19.1003 99.4271 17.1073 98.9212 15.9736 100.15C14.6054 102.112 14.1366 104.487 12.4602 106.304C10.2037 108.635 9.01014 111.534 6.85148 113.921C6.97432 111.85 7.34055 109.801 7.32222 107.725C6.70507 105.932 3.55347 106.072 2.45261 107.344C1.82364 109.934 1.89125 112.625 1.45817 115.241C1.17055 118.561 -1.03312 121.794 0.74283 125.117C4.01626 124.987 6.48248 123.08 9.22726 121.865ZM27.4803 75.7089C25.975 74.4744 23.1669 75.55 23.1966 77.276C22.6534 80.184 22.3665 83.1543 21.3036 85.962C20.8945 87.635 19.1901 90.0057 21.8633 91.0313C24.2534 90.6431 24.4689 88.2779 25.2546 86.7099C26.3843 83.1451 27.8362 79.4416 27.4803 75.7089ZM28.1566 60.4032C28.4546 56.8547 28.6305 53.1912 27.2704 49.7369C25.9905 50.0385 24.4541 50.1443 23.7027 51.2074C23.651 54.4039 24.3445 57.6027 24.0315 60.7926C24.0245 62.929 22.7616 65.7585 25.8386 66.9154C27.8803 65.2253 27.8655 62.6735 28.1566 60.4032ZM24.7837 32.3062C23.8362 29.3162 23.2799 26.1544 21.1295 23.5451C19.9438 23.9583 17.6653 24.3651 18.3124 25.9218C19.9268 30.0345 21.1089 34.2362 22.1667 38.4582C22.3299 39.9499 25.1651 40.1955 25.6975 38.733C26.054 36.5788 25.3266 34.4109 24.7837 32.3062ZM16.2553 11.0467C14.2459 7.02823 12.0568 2.3739 7.13529 0.318413C5.1838 -0.557305 3.66635 2.05145 5.38894 3.05087C9.28508 5.97007 11.0146 10.156 13.6697 13.7867C15.7813 15.6459 17.5948 12.561 16.2553 11.0467Z" fill="#7828E6"/>
</svg>
