<svg width="39" height="40" viewBox="0 0 39 40" fill="none" xmlns="http://www.w3.org/2000/svg">
<path fill-rule="evenodd" clip-rule="evenodd" d="M19.0828 0.917236C29.6219 0.917236 38.1657 9.46101 38.1657 20.0001C38.1657 30.5391 29.6219 39.0829 19.0828 39.0829C8.54377 39.0829 0 30.5391 0 20.0001C0 9.46101 8.54377 0.917236 19.0828 0.917236Z" fill="#E63A28"/>
<path d="M23.3766 12.6723V10.8403H14.7893V12.6723H12.2131V29.1599H17.3655V27.3279H20.8004V29.1599H25.9528V12.6723H23.3766ZM18.2242 24.58H16.5068V22.748H18.2242V24.58ZM18.2242 20.9161H16.5068V19.0841H18.2242V20.9161ZM18.2242 17.2522H16.5068V15.4202H18.2242V17.2522ZM21.6591 24.58H19.9417V22.748H21.6591V24.58ZM21.6591 20.9161H19.9417V19.0841H21.6591V20.9161ZM21.6591 17.2522H19.9417V15.4202H21.6591V17.2522Z" fill="white"/>
</svg>
