<svg width="80" height="36" viewBox="0 0 80 36" fill="none" xmlns="http://www.w3.org/2000/svg">
<path fill-rule="evenodd" clip-rule="evenodd" d="M15 6H65C73.284 6 80 12.715 80 21C80 29.284 73.284 36 65 36H15C6.716 36 0 29.284 0 21C0 12.715 6.716 6 15 6Z" fill="#333333"/>
<path fill-rule="evenodd" clip-rule="evenodd" d="M40.001 0L45.001 6H35L40.001 0Z" fill="#333333"/>
<path d="M19.948 22.9C20.586 23.406 21.609 24 22.786 24.011C23.556 24.011 24.249 23.78 24.766 23.406C25.283 23.032 25.635 22.482 25.635 21.866C25.635 21.25 25.294 20.744 24.788 20.414C24.282 20.073 23.6 19.853 22.83 19.71H22.808C22.115 19.578 21.543 19.391 21.158 19.127C20.773 18.863 20.597 18.577 20.586 18.192C20.586 17.796 20.806 17.422 21.191 17.136C21.576 16.861 22.137 16.674 22.764 16.674C23.611 16.674 24.271 17.092 24.876 17.488C24.986 17.565 25.14 17.532 25.206 17.422C25.283 17.301 25.25 17.158 25.14 17.081C24.535 16.685 23.776 16.19 22.764 16.19C22.038 16.19 21.389 16.399 20.905 16.751C20.421 17.103 20.102 17.609 20.102 18.192C20.102 18.764 20.421 19.226 20.894 19.534C21.367 19.853 21.994 20.051 22.709 20.183H22.731C23.479 20.326 24.095 20.535 24.513 20.81C24.931 21.096 25.14 21.426 25.14 21.866C25.14 22.295 24.909 22.702 24.48 23.01C24.062 23.318 23.457 23.516 22.786 23.516C21.785 23.527 20.828 22.988 20.256 22.526C20.157 22.438 20.003 22.449 19.915 22.559C19.838 22.658 19.849 22.812 19.948 22.9ZM27.329 23.736C27.329 23.879 27.439 23.989 27.571 24H27.593H27.626H31.553C31.707 24 31.817 23.879 31.817 23.736C31.817 23.582 31.707 23.461 31.553 23.461H27.868V20.425H31.091C31.234 20.425 31.355 20.304 31.355 20.161C31.355 20.007 31.234 19.886 31.091 19.886H27.868V16.839H31.553C31.707 16.839 31.817 16.718 31.817 16.564C31.817 16.421 31.707 16.3 31.553 16.3H27.615H27.593C27.45 16.3 27.329 16.421 27.329 16.564V23.736ZM38.4695 23.824C38.5135 23.934 38.6235 24 38.7225 24C38.7555 24 38.7775 23.989 38.8215 23.989C38.9535 23.934 39.0195 23.769 38.9645 23.637L36.2915 16.498C36.2585 16.399 36.1485 16.333 36.0275 16.333C35.9175 16.333 35.8075 16.399 35.7635 16.498L33.0905 23.637C33.0355 23.769 33.1125 23.934 33.2445 23.989C33.2775 23.989 33.3215 24 33.3435 24C33.4535 24 33.5525 23.934 33.5965 23.824L34.2785 22.009H37.7875L38.4695 23.824ZM36.0385 17.334L37.5895 21.47H34.4765L36.0385 17.334ZM44.4478 23.527C44.5688 23.769 44.7998 23.879 44.9428 23.879H44.9648C45.0308 23.879 45.0858 23.868 45.0968 23.868C45.2398 23.813 45.3058 23.659 45.2728 23.516C45.2288 23.395 45.0968 23.329 44.9758 23.34C44.9648 23.329 44.9098 23.285 44.8658 23.153C44.8108 22.988 44.7668 22.713 44.7668 22.262C44.7668 21.393 44.2388 20.832 43.7328 20.546C43.6888 20.524 43.6558 20.513 43.6228 20.491C44.3708 20.139 44.8878 19.38 44.8878 18.5C44.8878 17.279 43.9088 16.3 42.6988 16.3H40.5538H40.5208H40.4988C40.3668 16.311 40.2568 16.432 40.2568 16.564V23.736C40.2568 23.879 40.3778 24 40.5208 24C40.6748 24 40.7958 23.879 40.7958 23.736V20.689H42.6658C42.6768 20.689 42.6878 20.7 42.7208 20.711C42.8638 20.733 43.2708 20.854 43.6118 21.096C43.9528 21.349 44.2388 21.701 44.2388 22.262C44.2388 22.911 44.3158 23.274 44.4478 23.527ZM44.3598 18.5C44.3598 19.402 43.6338 20.139 42.7428 20.161H42.6438H40.7958V16.839H42.6988C43.6118 16.839 44.3598 17.576 44.3598 18.5ZM46.6698 20.117C46.6698 22.262 48.4628 24 50.6738 24C51.6198 24 52.4888 23.681 53.1598 23.164C53.2808 23.076 53.3028 22.878 53.1928 22.779C53.1158 22.647 52.9398 22.625 52.8078 22.713C52.2358 23.197 51.4878 23.461 50.6738 23.461C48.7488 23.461 47.2088 21.954 47.2088 20.117C47.2088 18.236 48.7488 16.729 50.6738 16.729C51.4878 16.729 52.2358 17.015 52.8298 17.477C52.9398 17.565 53.1158 17.554 53.2038 17.422C53.3028 17.323 53.2808 17.136 53.1598 17.037C52.4888 16.52 51.6198 16.19 50.6738 16.19C48.4628 16.201 46.6698 17.928 46.6698 20.117ZM59.7211 23.736C59.7211 23.879 59.8421 24 59.9851 24C60.1391 24 60.2601 23.879 60.2601 23.736V16.564C60.2601 16.421 60.1391 16.3 59.9851 16.3C59.8421 16.3 59.7211 16.421 59.7211 16.564V19.886H55.7611V16.564C55.7611 16.421 55.6401 16.3 55.4861 16.3C55.3431 16.3 55.2221 16.421 55.2221 16.564V23.736C55.2221 23.879 55.3431 24 55.4861 24C55.6401 24 55.7611 23.879 55.7611 23.736V20.414H59.7211V23.736Z" fill="white"/>
</svg>
