<svg width="39" height="40" viewBox="0 0 39 40" fill="none" xmlns="http://www.w3.org/2000/svg">
<path fill-rule="evenodd" clip-rule="evenodd" d="M19.118 0.917236C29.6571 0.917236 38.2008 9.46101 38.2008 20.0001C38.2008 30.5391 29.6571 39.0829 19.118 39.0829C8.57893 39.0829 0.0351562 30.5391 0.0351562 20.0001C0.0351562 9.46101 8.57893 0.917236 19.118 0.917236Z" fill="white"/>
<path fill-rule="evenodd" clip-rule="evenodd" d="M29.0456 17.0157C28.9487 16.8729 28.8029 16.7897 28.651 16.7897H26.7183C26.2419 15.289 25.6214 13.8151 24.9168 13.2594C22.4758 11.3374 15.9967 11.3374 13.5557 13.2594C12.8504 13.8151 12.2306 15.289 11.7512 16.7897H9.82078C9.66735 16.7897 9.52309 16.8729 9.42615 17.0157C9.3292 17.1576 9.29257 17.3416 9.32233 17.5233L9.6101 19.1781C9.65667 19.4598 9.86505 19.6613 10.1063 19.6613H10.6787C10.1261 20.4238 9.85742 21.3849 9.85513 22.3428C9.85055 23.5298 10.2276 24.6007 10.9177 25.3602C10.9253 25.3663 10.9329 25.3755 10.9398 25.3808V27.7005C10.9398 28.2013 11.2802 28.6112 11.7016 28.6112H13.4832C13.903 28.6112 14.2449 28.2013 14.2449 27.7005V26.7685H24.2268V27.7005C24.2268 28.2013 24.5672 28.6112 24.9893 28.6112H26.7702C27.19 28.6112 27.5327 28.2013 27.5327 27.7005V25.4251C28.2617 24.6274 28.6113 23.5267 28.6166 22.426C28.6197 21.436 28.3388 20.4391 27.7525 19.6613H28.3632C28.6044 19.6613 28.812 19.4598 28.8616 19.1781L29.1479 17.5233C29.1769 17.3416 29.1402 17.1576 29.0456 17.0157ZM14.3938 14.7814C16.3387 13.251 22.133 13.251 24.0757 14.7814C24.4558 15.0784 24.9413 16.2768 25.3863 17.7454H13.0839C13.5282 16.2768 14.0137 15.0784 14.3938 14.7814ZM13.6122 24.3664C12.7863 24.3664 12.1138 23.5626 12.1138 22.5718C12.1138 21.5833 12.7863 20.7803 13.6122 20.7803C14.4411 20.7803 15.1136 21.5833 15.1136 22.5718C15.1136 23.5626 14.4411 24.3664 13.6122 24.3664ZM24.8771 24.3664C24.0512 24.3664 23.3788 23.5626 23.3788 22.5718C23.3788 21.5833 24.0512 20.7803 24.8771 20.7803C25.7061 20.7803 26.3786 21.5833 26.3786 22.5718C26.3786 23.5626 25.7061 24.3664 24.8771 24.3664Z" fill="#7828E6"/>
</svg>
