<svg width="215" height="225" viewBox="0 0 215 225" fill="none" xmlns="http://www.w3.org/2000/svg">
<path opacity="0.05" fill-rule="evenodd" clip-rule="evenodd" d="M6.118 212.837C2.739 212.837 0 215.56 0 218.919C0 222.277 2.739 224.999 6.118 224.999C9.496 224.999 12.236 222.277 12.236 218.919C12.236 215.56 9.496 212.837 6.118 212.837ZM46.321 212.837C42.942 212.837 40.203 215.56 40.203 218.919C40.203 222.277 42.942 224.999 46.321 224.999C49.7 224.999 52.439 222.277 52.439 218.919C52.439 215.56 49.7 212.837 46.321 212.837ZM86.524 212.837C83.146 212.837 80.406 215.56 80.406 218.919C80.406 222.277 83.146 224.999 86.524 224.999C89.903 224.999 92.642 222.277 92.642 218.919C92.642 215.56 89.903 212.837 86.524 212.837ZM128.476 212.837C125.096 212.837 122.357 215.56 122.357 218.919C122.357 222.277 125.096 224.999 128.476 224.999C131.854 224.999 134.593 222.277 134.593 218.919C134.593 215.56 131.854 212.837 128.476 212.837ZM168.679 212.837C165.3 212.837 162.561 215.56 162.561 218.919C162.561 222.277 165.3 224.999 168.679 224.999C172.057 224.999 174.796 222.277 174.796 218.919C174.796 215.56 172.057 212.837 168.679 212.837ZM208.882 212.837C205.503 212.837 202.763 215.56 202.763 218.919C202.763 222.277 205.503 224.999 208.882 224.999C212.26 224.999 215 222.277 215 218.919C215 215.56 212.26 212.837 208.882 212.837ZM6.118 170.269C2.739 170.269 0 172.993 0 176.351C0 179.709 2.739 182.432 6.118 182.432C9.496 182.432 12.236 179.709 12.236 176.351C12.236 172.993 9.496 170.269 6.118 170.269ZM46.321 170.269C42.942 170.269 40.203 172.993 40.203 176.351C40.203 179.709 42.942 182.432 46.321 182.432C49.7 182.432 52.439 179.709 52.439 176.351C52.439 172.993 49.7 170.269 46.321 170.269ZM86.524 170.269C83.146 170.269 80.406 172.993 80.406 176.351C80.406 179.709 83.146 182.432 86.524 182.432C89.903 182.432 92.642 179.709 92.642 176.351C92.642 172.993 89.903 170.269 86.524 170.269ZM128.476 170.269C125.096 170.269 122.357 172.993 122.357 176.351C122.357 179.709 125.096 182.432 128.476 182.432C131.854 182.432 134.593 179.709 134.593 176.351C134.593 172.993 131.854 170.269 128.476 170.269ZM168.679 170.269C165.3 170.269 162.561 172.993 162.561 176.351C162.561 179.709 165.3 182.432 168.679 182.432C172.057 182.432 174.796 179.709 174.796 176.351C174.796 172.993 172.057 170.269 168.679 170.269ZM208.882 170.269C205.503 170.269 202.763 172.993 202.763 176.351C202.763 179.709 205.503 182.432 208.882 182.432C212.26 182.432 215 179.709 215 176.351C215 172.993 212.26 170.269 208.882 170.269ZM6.118 127.702C2.739 127.702 0 130.425 0 133.784C0 137.142 2.739 139.864 6.118 139.864C9.496 139.864 12.236 137.142 12.236 133.784C12.236 130.425 9.496 127.702 6.118 127.702ZM46.321 127.702C42.942 127.702 40.203 130.425 40.203 133.784C40.203 137.142 42.942 139.864 46.321 139.864C49.7 139.864 52.439 137.142 52.439 133.784C52.439 130.425 49.7 127.702 46.321 127.702ZM86.524 127.702C83.146 127.702 80.406 130.425 80.406 133.784C80.406 137.142 83.146 139.864 86.524 139.864C89.903 139.864 92.642 137.142 92.642 133.784C92.642 130.425 89.903 127.702 86.524 127.702ZM128.476 127.702C125.096 127.702 122.357 130.425 122.357 133.784C122.357 137.142 125.096 139.864 128.476 139.864C131.854 139.864 134.593 137.142 134.593 133.784C134.593 130.425 131.854 127.702 128.476 127.702ZM168.679 127.702C165.3 127.702 162.561 130.425 162.561 133.784C162.561 137.142 165.3 139.864 168.679 139.864C172.057 139.864 174.796 137.142 174.796 133.784C174.796 130.425 172.057 127.702 168.679 127.702ZM208.882 127.702C205.503 127.702 202.763 130.425 202.763 133.784C202.763 137.142 205.503 139.864 208.882 139.864C212.26 139.864 215 137.142 215 133.784C215 130.425 212.26 127.702 208.882 127.702ZM6.118 85.134C2.739 85.134 0 87.857 0 91.216C0 94.575 2.739 97.297 6.118 97.297C9.496 97.297 12.236 94.575 12.236 91.216C12.236 87.857 9.496 85.134 6.118 85.134ZM46.321 85.134C42.942 85.134 40.203 87.857 40.203 91.216C40.203 94.575 42.942 97.297 46.321 97.297C49.7 97.297 52.439 94.575 52.439 91.216C52.439 87.857 49.7 85.134 46.321 85.134ZM86.524 85.134C83.146 85.134 80.406 87.857 80.406 91.216C80.406 94.575 83.146 97.297 86.524 97.297C89.903 97.297 92.642 94.575 92.642 91.216C92.642 87.857 89.903 85.134 86.524 85.134ZM128.476 85.134C125.096 85.134 122.357 87.857 122.357 91.216C122.357 94.575 125.096 97.297 128.476 97.297C131.854 97.297 134.593 94.575 134.593 91.216C134.593 87.857 131.854 85.134 128.476 85.134ZM168.679 85.134C165.3 85.134 162.561 87.857 162.561 91.216C162.561 94.575 165.3 97.297 168.679 97.297C172.057 97.297 174.796 94.575 174.796 91.216C174.796 87.857 172.057 85.134 168.679 85.134ZM208.882 85.134C205.503 85.134 202.763 87.857 202.763 91.216C202.763 94.575 205.503 97.297 208.882 97.297C212.26 97.297 215 94.575 215 91.216C215 87.857 212.26 85.134 208.882 85.134ZM6.118 42.568C2.739 42.568 0 45.29 0 48.648C0 52.007 2.739 54.729 6.118 54.729C9.496 54.729 12.236 52.007 12.236 48.648C12.236 45.29 9.496 42.568 6.118 42.568ZM46.321 42.568C42.942 42.568 40.203 45.29 40.203 48.648C40.203 52.007 42.942 54.729 46.321 54.729C49.7 54.729 52.439 52.007 52.439 48.648C52.439 45.29 49.7 42.568 46.321 42.568ZM86.524 42.568C83.146 42.568 80.406 45.29 80.406 48.648C80.406 52.007 83.146 54.729 86.524 54.729C89.903 54.729 92.642 52.007 92.642 48.648C92.642 45.29 89.903 42.568 86.524 42.568ZM128.476 42.568C125.096 42.568 122.357 45.29 122.357 48.648C122.357 52.007 125.096 54.729 128.476 54.729C131.854 54.729 134.593 52.007 134.593 48.648C134.593 45.29 131.854 42.568 128.476 42.568ZM168.679 42.568C165.3 42.568 162.561 45.29 162.561 48.648C162.561 52.007 165.3 54.729 168.679 54.729C172.057 54.729 174.796 52.007 174.796 48.648C174.796 45.29 172.057 42.568 168.679 42.568ZM208.882 42.568C205.503 42.568 202.763 45.29 202.763 48.648C202.763 52.007 205.503 54.729 208.882 54.729C212.26 54.729 215 52.007 215 48.648C215 45.29 212.26 42.568 208.882 42.568ZM6.118 -0.000976562C2.739 -0.000976562 0 2.72202 0 6.08102C0 9.43902 2.739 12.162 6.118 12.162C9.496 12.162 12.236 9.43902 12.236 6.08102C12.236 2.72202 9.496 -0.000976562 6.118 -0.000976562ZM46.321 -0.000976562C42.942 -0.000976562 40.203 2.72202 40.203 6.08102C40.203 9.43902 42.942 12.162 46.321 12.162C49.7 12.162 52.439 9.43902 52.439 6.08102C52.439 2.72202 49.7 -0.000976562 46.321 -0.000976562ZM86.524 -0.000976562C83.146 -0.000976562 80.406 2.72202 80.406 6.08102C80.406 9.43902 83.146 12.162 86.524 12.162C89.903 12.162 92.642 9.43902 92.642 6.08102C92.642 2.72202 89.903 -0.000976562 86.524 -0.000976562ZM128.476 -0.000976562C125.096 -0.000976562 122.357 2.72202 122.357 6.08102C122.357 9.43902 125.096 12.162 128.476 12.162C131.854 12.162 134.593 9.43902 134.593 6.08102C134.593 2.72202 131.854 -0.000976562 128.476 -0.000976562ZM168.679 -0.000976562C165.3 -0.000976562 162.561 2.72202 162.561 6.08102C162.561 9.43902 165.3 12.162 168.679 12.162C172.057 12.162 174.796 9.43902 174.796 6.08102C174.796 2.72202 172.057 -0.000976562 168.679 -0.000976562ZM208.882 -0.000976562C205.503 -0.000976562 202.763 2.72202 202.763 6.08102C202.763 9.43902 205.503 12.162 208.882 12.162C212.26 12.162 215 9.43902 215 6.08102C215 2.72202 212.26 -0.000976562 208.882 -0.000976562Z" fill="#2B5AE1"/>
</svg>
