<svg width="16" height="16" viewBox="0 0 16 16" fill="none" xmlns="http://www.w3.org/2000/svg">
<path d="M8 1C8.40625 1 8.82292 1.08333 9.25 1.25C9.6875 1.40625 10.0677 1.60938 10.3906 1.85938C10.7135 2.09896 10.9792 2.36979 11.1875 2.67188C11.3958 2.96354 11.5 3.23958 11.5 3.5V6C11.5 6.59375 11.375 7.25521 11.125 7.98438C10.875 8.71354 10.5052 9.26562 10.0156 9.64062C9.93229 9.71354 9.85938 9.80208 9.79688 9.90625C9.73438 10 9.6875 10.1042 9.65625 10.2188C9.63542 10.3229 9.63021 10.4323 9.64062 10.5469C9.69271 10.9219 9.88542 11.1875 10.2188 11.3438L14.5781 13.4062C14.5781 13.4062 14.5885 13.4115 14.6094 13.4219C14.6302 13.4219 14.651 13.4271 14.6719 13.4375C14.6927 13.4479 14.7188 13.4635 14.75 13.4844C14.7812 13.5052 14.8073 13.5312 14.8281 13.5625C14.8594 13.5833 14.8854 13.6146 14.9062 13.6562C14.9375 13.6979 14.9583 13.75 14.9688 13.8125C14.9792 13.875 14.9844 13.9427 14.9844 14.0156V14.9844L1 15V13.9844C1 13.724 1.14062 13.5312 1.42188 13.4062L5.8125 11.3281C6.14583 11.1719 6.33333 10.9115 6.375 10.5469C6.42708 10.1719 6.30729 9.86979 6.01562 9.64062C5.53646 9.25521 5.16146 8.69792 4.89062 7.96875C4.63021 7.22917 4.5 6.57292 4.5 6V3.5C4.5 3.15625 4.67188 2.79167 5.01562 2.40625C5.35938 2.01042 5.80729 1.67708 6.35938 1.40625C6.91146 1.13542 7.45833 1 8 1ZM8 0C7.28125 0 6.56771 0.177083 5.85938 0.53125C5.16146 0.875 4.59375 1.32292 4.15625 1.875C3.71875 2.41667 3.5 2.95833 3.5 3.5V6C3.5 6.67708 3.65625 7.45833 3.96875 8.34375C4.29167 9.21875 4.76562 9.91146 5.39062 10.4219L1 12.5C0.96875 12.5104 0.932292 12.526 0.890625 12.5469C0.848958 12.5677 0.770833 12.6146 0.65625 12.6875C0.541667 12.7604 0.4375 12.8333 0.34375 12.9062C0.260417 12.9792 0.182292 13.0729 0.109375 13.1875C0.0364583 13.2917 0 13.3906 0 13.4844V15C0 15.2708 0.09375 15.5 0.28125 15.6875C0.479167 15.8854 0.71875 15.9844 1 15.9844H15C15.2708 15.9844 15.5 15.8854 15.6875 15.6875C15.8854 15.5 15.9844 15.2708 15.9844 15V13.4844C15.9844 13.3802 15.9479 13.276 15.875 13.1719C15.8125 13.0573 15.7292 12.9635 15.625 12.8906C15.5312 12.8073 15.4375 12.7344 15.3438 12.6719C15.25 12.6094 15.1667 12.5625 15.0938 12.5312L15 12.5L10.6406 10.4219C11.2656 9.93229 11.7292 9.25521 12.0312 8.39062C12.3438 7.52604 12.5 6.72917 12.5 6V3.5C12.5 3.09375 12.3646 2.68229 12.0938 2.26562C11.8333 1.83854 11.4948 1.45833 11.0781 1.125C10.6615 0.791667 10.1771 0.520833 9.625 0.3125C9.07292 0.104167 8.53125 0 8 0Z" fill="#7828E6"/>
</svg>
