<svg width="65" height="56" viewBox="0 0 65 56" fill="none" xmlns="http://www.w3.org/2000/svg">
<path d="M32.5 21.8462C34.6845 21.8462 36.8199 21.2056 38.6362 20.0054C40.4526 18.8051 41.8682 17.0992 42.7042 15.1032C43.5401 13.1073 43.7589 10.911 43.3327 8.79213C42.9065 6.67325 41.8546 4.72694 40.3099 3.19931C38.7653 1.67169 36.7973 0.63136 34.6548 0.209889C32.5122 -0.211581 30.2915 0.00473334 28.2733 0.831478C26.2551 1.65822 24.5301 3.05827 23.3165 4.85456C22.1028 6.65086 21.4551 8.76273 21.4551 10.9231C21.4582 13.8192 22.6229 16.5957 24.6935 18.6435C26.7642 20.6913 29.5717 21.8431 32.5 21.8462ZM32.5 3.7666C33.9312 3.7666 35.3303 4.18632 36.5203 4.97269C37.7103 5.75906 38.6378 6.87675 39.1855 8.18444C39.7332 9.49212 39.8765 10.9311 39.5973 12.3193C39.3181 13.7075 38.6289 14.9827 37.6169 15.9835C36.6048 16.9844 35.3154 17.666 33.9117 17.9421C32.508 18.2183 31.053 18.0765 29.7308 17.5349C28.4085 16.9932 27.2783 16.076 26.4832 14.8991C25.6881 13.7222 25.2637 12.3385 25.2637 10.9231C25.2659 9.02577 26.029 7.20677 27.3856 5.86514C28.7422 4.52351 30.5815 3.76881 32.5 3.7666Z" fill="url(#paint0_linear_6_67)"/>
<path d="M54.8438 21.8462C56.2247 21.8462 57.5747 21.4412 58.723 20.6825C59.8712 19.9237 60.7662 18.8452 61.2947 17.5834C61.8231 16.3216 61.9614 14.9332 61.692 13.5936C61.4226 12.2541 60.7576 11.0237 59.7811 10.0579C58.8046 9.09221 57.5604 8.43453 56.206 8.16808C54.8515 7.90164 53.4476 8.03839 52.1717 8.56104C50.8958 9.0837 49.8053 9.96878 49.0381 11.1044C48.2708 12.24 47.8613 13.5751 47.8613 14.9408C47.8631 16.7717 48.5993 18.5271 49.9084 19.8217C51.2175 21.1164 52.9924 21.8445 54.8438 21.8462ZM54.8438 11.802C55.4715 11.802 56.0851 11.9861 56.607 12.331C57.129 12.6759 57.5358 13.1661 57.776 13.7396C58.0162 14.3132 58.0791 14.9443 57.9566 15.5532C57.8341 16.162 57.5319 16.7213 57.088 17.1603C56.6441 17.5993 56.0786 17.8982 55.4629 18.0193C54.8473 18.1404 54.2091 18.0783 53.6292 17.8407C53.0492 17.6031 52.5536 17.2008 52.2048 16.6847C51.8561 16.1685 51.6699 15.5616 51.6699 14.9408C51.6708 14.1086 52.0055 13.3108 52.6005 12.7223C53.1955 12.1339 54.0023 11.8029 54.8438 11.802Z" fill="url(#paint1_linear_6_67)"/>
<path d="M56.379 26.115H53.4354C51.7894 26.1146 50.1775 26.5795 48.7898 27.4551C47.4022 28.3307 46.2965 29.5803 45.6033 31.0568C44.1662 29.4992 42.4163 28.2552 40.4656 27.4043C38.5148 26.5534 36.406 26.1143 34.274 26.115H30.7193C28.5872 26.1143 26.4784 26.5534 24.5276 27.4043C22.5769 28.2552 20.8271 29.4992 19.39 31.0568C18.6972 29.5814 17.5926 28.3324 16.2062 27.4569C14.8199 26.5814 13.2095 26.1159 11.5646 26.115H8.62096C6.34225 26.1106 4.1548 27.0003 2.53859 28.5889C0.922376 30.1776 0.00940991 32.3354 0 34.589V48.2994C-1.82189e-06 48.7839 0.0966545 49.2636 0.284436 49.7111C0.472217 50.1586 0.747431 50.565 1.09431 50.9072C1.44119 51.2493 1.85292 51.5204 2.3059 51.7048C2.75889 51.8893 3.24422 51.9836 3.73411 51.9823H15.3783C15.4759 53.0781 15.9847 54.0981 16.8045 54.8416C17.6243 55.5852 18.6957 55.9984 19.8081 56H45.1987C46.311 55.9984 47.3825 55.5852 48.2023 54.8416C49.0221 54.0981 49.5308 53.0781 49.6285 51.9823H61.1389C62.1615 51.9814 63.142 51.5797 63.8657 50.8653C64.5895 50.1508 64.9973 49.1818 65 48.1705V34.589C64.9906 32.3354 64.0776 30.1776 62.4614 28.5889C60.8452 27.0003 58.6577 26.1106 56.379 26.115ZM3.80859 34.589C3.81665 33.334 4.32793 32.1334 5.23018 31.2508C6.13244 30.3683 7.35193 29.8758 8.62096 29.8816H11.5646C12.8336 29.8758 14.0531 30.3683 14.9554 31.2508C15.8576 32.1334 16.3689 33.334 16.377 34.589V35.878C15.0956 39.1759 15.3613 41.1513 15.3613 48.2124H3.80859V34.589ZM45.8301 51.5989C45.8301 51.7657 45.7633 51.9258 45.6444 52.044C45.5254 52.1623 45.364 52.2292 45.1953 52.2301H19.8047C19.6354 52.2301 19.4731 52.1636 19.3535 52.0452C19.2338 51.9269 19.1665 51.7663 19.1665 51.5989V41.3103C19.1697 38.2802 20.3882 35.375 22.5547 33.2324C24.7212 31.0898 27.6587 29.8847 30.7227 29.8816H34.2773C37.3411 29.8852 40.2784 31.0904 42.4448 33.2329C44.6112 35.3754 45.8299 38.2803 45.8335 41.3103L45.8301 51.5989ZM61.1914 48.1705C61.1914 48.2341 61.9023 48.2124 49.6387 48.2124C49.6387 41.0994 49.901 39.1725 48.623 35.878V34.589C48.6311 33.334 49.1424 32.1334 50.0446 31.2508C50.9469 30.3683 52.1664 29.8758 53.4354 29.8816H56.379C57.6481 29.8758 58.8676 30.3683 59.7698 31.2508C60.6721 32.1334 61.1833 33.334 61.1914 34.589V48.1705Z" fill="url(#paint2_linear_6_67)"/>
<path d="M10.1562 21.8462C11.5372 21.8462 12.8872 21.4412 14.0355 20.6825C15.1837 19.9237 16.0787 18.8452 16.6072 17.5834C17.1357 16.3216 17.2739 14.9332 17.0045 13.5936C16.7351 12.2541 16.0701 11.0237 15.0936 10.0579C14.1171 9.09221 12.8729 8.43453 11.5185 8.16808C10.164 7.90164 8.76006 8.03839 7.48419 8.56104C6.20832 9.0837 5.11782 9.96878 4.35058 11.1044C3.58334 12.24 3.17383 13.5751 3.17383 14.9408C3.17562 16.7717 3.91185 18.5271 5.22092 19.8217C6.52999 21.1164 8.30495 21.8445 10.1562 21.8462ZM10.1562 11.802C10.784 11.802 11.3976 11.9861 11.9195 12.331C12.4415 12.6759 12.8483 13.1661 13.0885 13.7396C13.3287 14.3132 13.3916 14.9443 13.2691 15.5532C13.1466 16.162 12.8444 16.7213 12.4005 17.1603C11.9566 17.5993 11.3911 17.8982 10.7754 18.0193C10.1598 18.1404 9.52162 18.0783 8.94168 17.8407C8.36174 17.6031 7.86606 17.2008 7.51731 16.6847C7.16857 16.1685 6.98242 15.5616 6.98242 14.9408C6.98332 14.1086 7.31799 13.3108 7.91301 12.7223C8.50802 12.1339 9.31477 11.8029 10.1562 11.802Z" fill="url(#paint3_linear_6_67)"/>
<defs>
<linearGradient id="paint0_linear_6_67" x1="15.142" y1="9.75758" x2="66.1532" y2="47.7185" gradientUnits="userSpaceOnUse">
<stop stop-color="#1C468A"/>
<stop offset="1" stop-color="#5E89D0"/>
</linearGradient>
<linearGradient id="paint1_linear_6_67" x1="15.142" y1="9.75758" x2="66.1532" y2="47.7185" gradientUnits="userSpaceOnUse">
<stop stop-color="#1C468A"/>
<stop offset="1" stop-color="#5E89D0"/>
</linearGradient>
<linearGradient id="paint2_linear_6_67" x1="15.142" y1="9.75758" x2="66.1532" y2="47.7185" gradientUnits="userSpaceOnUse">
<stop stop-color="#1C468A"/>
<stop offset="1" stop-color="#5E89D0"/>
</linearGradient>
<linearGradient id="paint3_linear_6_67" x1="15.142" y1="9.75758" x2="66.1532" y2="47.7185" gradientUnits="userSpaceOnUse">
<stop stop-color="#1C468A"/>
<stop offset="1" stop-color="#5E89D0"/>
</linearGradient>
</defs>
</svg>
