<svg width="77" height="58" viewBox="0 0 77 58" fill="none" xmlns="http://www.w3.org/2000/svg">
<path d="M74.961 45.821L57.7342 28.3841C59.6207 24.052 59.9459 19.1877 58.653 14.6382C57.3602 10.0886 54.5313 6.14189 50.6589 3.48533C46.7865 0.82877 42.116 -0.369382 37.4604 0.0994984C32.8049 0.568379 28.4594 2.67459 25.1806 6.05139C21.9017 9.42819 19.8971 13.8617 19.516 18.5799C19.1349 23.298 20.4012 28.002 23.0947 31.8728C25.7881 35.7435 29.7379 38.5358 34.2563 39.7635C38.7748 40.9911 43.5757 40.5763 47.823 38.5913L64.9615 55.9369C66.2905 57.2644 68.0844 58.006 69.9519 58C71.8193 57.9939 73.6085 57.2406 74.929 55.9045C76.2495 54.5684 76.994 52.7579 77 50.8684C77.006 48.9788 76.273 47.1636 74.961 45.8189V45.821ZM28.484 31.2885C26.3164 29.0959 24.84 26.3022 24.2417 23.2606C23.6434 20.219 23.95 17.0661 25.1226 14.2008C26.2953 11.3355 28.2815 8.88647 30.8298 7.16339C33.3782 5.4403 36.3743 4.5206 39.4393 4.5206C42.5043 4.5206 45.5004 5.4403 48.0488 7.16339C50.5971 8.88647 52.5832 11.3355 53.7559 14.2008C54.9286 17.0661 55.2352 20.219 54.6368 23.2606C54.0385 26.3022 52.5622 29.0959 50.3946 31.2885C47.4856 34.2219 43.5462 35.869 39.4393 35.869C35.3324 35.869 31.393 34.2219 28.484 31.2885ZM71.7716 52.7097C71.2928 53.194 70.6434 53.4662 69.9663 53.4662C69.2892 53.4662 68.6398 53.194 68.161 52.7097L51.7867 36.1374C53.1289 35.0646 54.3307 33.8233 55.3632 32.4434L71.7656 49.0441C72.2423 49.5297 72.5099 50.1863 72.5099 50.8708C72.5099 51.5552 72.2423 52.2119 71.7656 52.6975L71.7716 52.7097Z" fill="url(#paint0_linear_6_58)"/>
<path d="M2.25665 27.3124H11.885C12.4835 27.3124 13.0575 27.0718 13.4807 26.6436C13.9039 26.2154 14.1417 25.6346 14.1417 25.029C14.1417 24.4234 13.9039 23.8426 13.4807 23.4144C13.0575 22.9862 12.4835 22.7456 11.885 22.7456H2.25665C1.65815 22.7456 1.08416 22.9862 0.660957 23.4144C0.237753 23.8426 0 24.4234 0 25.029C0 25.6346 0.237753 26.2154 0.660957 26.6436C1.08416 27.0718 1.65815 27.3124 2.25665 27.3124Z" fill="url(#paint1_linear_6_58)"/>
<path d="M2.25665 37.0548H15.4957C16.0942 37.0548 16.6682 36.8142 17.0914 36.386C17.5146 35.9578 17.7523 35.377 17.7523 34.7714C17.7523 34.1658 17.5146 33.585 17.0914 33.1568C16.6682 32.7286 16.0942 32.488 15.4957 32.488H2.25665C1.65815 32.488 1.08416 32.7286 0.660957 33.1568C0.237753 33.585 0 34.1658 0 34.7714C0 35.377 0.237753 35.9578 0.660957 36.386C1.08416 36.8142 1.65815 37.0548 2.25665 37.0548Z" fill="url(#paint2_linear_6_58)"/>
<path d="M2.25665 46.7972H25.112C25.7105 46.7972 26.2845 46.5566 26.7077 46.1284C27.1309 45.7002 27.3687 45.1194 27.3687 44.5138C27.3687 43.9082 27.1309 43.3275 26.7077 42.8993C26.2845 42.471 25.7105 42.2305 25.112 42.2305H2.25665C1.65815 42.2305 1.08416 42.471 0.660957 42.8993C0.237753 43.3275 0 43.9082 0 44.5138C0 45.1194 0.237753 45.7002 0.660957 46.1284C1.08416 46.5566 1.65815 46.7972 2.25665 46.7972Z" fill="url(#paint3_linear_6_58)"/>
<path d="M51.5761 51.9729H2.25673C1.66961 51.9906 1.1124 52.239 0.703297 52.6655C0.294192 53.092 0.0653687 53.6629 0.0653687 54.2573C0.0653687 54.8516 0.294192 55.4226 0.703297 55.8491C1.1124 56.2755 1.66961 56.524 2.25673 56.5417H51.5761C52.1633 56.524 52.7205 56.2755 53.1296 55.8491C53.5387 55.4226 53.7675 54.8516 53.7675 54.2573C53.7675 53.6629 53.5387 53.092 53.1296 52.6655C52.7205 52.239 52.1633 51.9906 51.5761 51.9729Z" fill="url(#paint4_linear_6_58)"/>
<defs>
<linearGradient id="paint0_linear_6_58" x1="17.9375" y1="10.1061" x2="72.3852" y2="56.4495" gradientUnits="userSpaceOnUse">
<stop stop-color="#E63A28"/>
<stop offset="1" stop-color="#E4766A"/>
</linearGradient>
<linearGradient id="paint1_linear_6_58" x1="17.9375" y1="10.1061" x2="72.3852" y2="56.4495" gradientUnits="userSpaceOnUse">
<stop stop-color="#E63A28"/>
<stop offset="1" stop-color="#E4766A"/>
</linearGradient>
<linearGradient id="paint2_linear_6_58" x1="17.9375" y1="10.1061" x2="72.3852" y2="56.4495" gradientUnits="userSpaceOnUse">
<stop stop-color="#E63A28"/>
<stop offset="1" stop-color="#E4766A"/>
</linearGradient>
<linearGradient id="paint3_linear_6_58" x1="17.9375" y1="10.1061" x2="72.3852" y2="56.4495" gradientUnits="userSpaceOnUse">
<stop stop-color="#E63A28"/>
<stop offset="1" stop-color="#E4766A"/>
</linearGradient>
<linearGradient id="paint4_linear_6_58" x1="17.9375" y1="10.1061" x2="72.3852" y2="56.4495" gradientUnits="userSpaceOnUse">
<stop stop-color="#E63A28"/>
<stop offset="1" stop-color="#E4766A"/>
</linearGradient>
</defs>
</svg>
