<svg width="54" height="57" viewBox="0 0 54 57" fill="none" xmlns="http://www.w3.org/2000/svg">
<path d="M16.5065 29.502H8.19856C7.76368 29.502 7.34661 29.6779 7.0391 29.9911C6.73159 30.3042 6.55884 30.729 6.55884 31.1719C6.55884 31.6148 6.73159 32.0395 7.0391 32.3527C7.34661 32.6659 7.76368 32.8418 8.19856 32.8418H16.5065C16.9414 32.8418 17.3584 32.6659 17.6659 32.3527C17.9734 32.0395 18.1462 31.6148 18.1462 31.1719C18.1462 30.729 17.9734 30.3042 17.6659 29.9911C17.3584 29.6779 16.9414 29.502 16.5065 29.502Z" fill="url(#paint0_linear_6_63)"/>
<path d="M16.5065 22.377H8.19856C7.76368 22.377 7.34661 22.5529 7.0391 22.8661C6.73159 23.1792 6.55884 23.604 6.55884 24.0469C6.55884 24.4898 6.73159 24.9145 7.0391 25.2277C7.34661 25.5409 7.76368 25.7168 8.19856 25.7168H16.5065C16.9414 25.7168 17.3584 25.5409 17.6659 25.2277C17.9734 24.9145 18.1462 24.4898 18.1462 24.0469C18.1462 23.604 17.9734 23.1792 17.6659 22.8661C17.3584 22.5529 16.9414 22.377 16.5065 22.377Z" fill="url(#paint1_linear_6_63)"/>
<path d="M32.6851 15.252H8.19856C7.76368 15.252 7.34661 15.4279 7.0391 15.7411C6.73159 16.0542 6.55884 16.479 6.55884 16.9219C6.55884 17.3648 6.73159 17.7895 7.0391 18.1027C7.34661 18.4159 7.76368 18.5918 8.19856 18.5918H32.6851C33.1199 18.5918 33.537 18.4159 33.8445 18.1027C34.152 17.7895 34.3248 17.3648 34.3248 16.9219C34.3248 16.479 34.152 16.0542 33.8445 15.7411C33.537 15.4279 33.1199 15.252 32.6851 15.252Z" fill="url(#paint2_linear_6_63)"/>
<path d="M32.6851 9.01758H8.19856C7.76368 9.01758 7.34661 9.19352 7.0391 9.50669C6.73159 9.81986 6.55884 10.2446 6.55884 10.6875C6.55884 11.1304 6.73159 11.5551 7.0391 11.8683C7.34661 12.1815 7.76368 12.3574 8.19856 12.3574H32.6851C33.1199 12.3574 33.537 12.1815 33.8445 11.8683C34.152 11.5551 34.3248 11.1304 34.3248 10.6875C34.3248 10.2446 34.152 9.81986 33.8445 9.50669C33.537 9.19352 33.1199 9.01758 32.6851 9.01758Z" fill="url(#paint3_linear_6_63)"/>
<path d="M50.4086 26.8301H40.8837V7.04781C40.8818 5.17871 40.1516 3.38676 38.8536 2.06538C37.5556 0.743997 35.7957 0.00117871 33.9604 0H6.92035C5.08555 0.00196467 3.32646 0.745133 2.02906 2.06643C0.731657 3.38772 0.00192913 5.17922 0 7.04781V45.4219C0.00385668 48.4914 1.20287 51.434 3.33408 53.6045C5.4653 55.775 8.35474 56.9961 11.3687 57H45.8014C47.9751 56.9976 50.0591 56.1172 51.5961 54.5518C53.1332 52.9865 53.9977 50.8641 54 48.6504V30.4905C53.9992 29.5202 53.6205 28.5899 52.9469 27.9036C52.2733 27.2173 51.36 26.8313 50.4072 26.8301H50.4086ZM11.3687 53.6602C9.22414 53.6574 7.16818 52.7886 5.65172 51.2442C4.13527 49.6998 3.28214 47.606 3.27944 45.4219V7.04781C3.27944 6.06361 3.66334 5.11972 4.34669 4.42378C5.03004 3.72785 5.95686 3.33688 6.92326 3.33688H33.9604C34.9268 3.33688 35.8536 3.72785 36.537 4.42378C37.2203 5.11972 37.6043 6.06361 37.6043 7.04781V48.6504C37.6029 50.4579 38.1801 52.2167 39.2484 53.6602H11.3687ZM50.722 48.6504C50.722 49.9791 50.2038 51.2533 49.2812 52.1928C48.3587 53.1323 47.1075 53.6602 45.8029 53.6602C44.4982 53.6602 43.247 53.1323 42.3245 52.1928C41.402 51.2533 40.8837 49.9791 40.8837 48.6504V30.1699H50.4086C50.4499 30.1699 50.4908 30.1782 50.5289 30.1944C50.567 30.2105 50.6016 30.2341 50.6307 30.2639C50.6599 30.2937 50.6829 30.3291 50.6986 30.368C50.7143 30.4069 50.7222 30.4485 50.722 30.4905V48.6504Z" fill="url(#paint4_linear_6_63)"/>
<path d="M29.9668 33.8126C29.6913 33.7131 29.41 33.6107 29.1301 33.5053V28.3382C30.1169 28.7286 30.1854 29.2288 31.0555 29.2288C31.3796 29.2272 31.6959 29.128 31.9647 28.9436C32.2335 28.7592 32.4426 28.4979 32.5657 28.1926C32.6889 27.8873 32.7205 27.5517 32.6567 27.2281C32.5928 26.9046 32.4364 26.6075 32.207 26.3744C32.239 26.3387 30.9491 25.2507 29.1301 24.8766V23.986C29.1301 23.5431 28.9574 23.1184 28.6499 22.8052C28.3424 22.492 27.9253 22.3161 27.4904 22.3161C27.0555 22.3161 26.6385 22.492 26.331 22.8052C26.0235 23.1184 25.8507 23.5431 25.8507 23.986V24.9909C21.4067 26.1784 20.4768 31.9408 23.4283 34.298C24.1766 34.8761 24.9898 35.3614 25.8507 35.7437V42.6342C25.1394 42.5288 24.6001 42.2765 23.7446 41.7065C23.3806 41.464 22.937 41.3786 22.5113 41.4693C22.0855 41.5599 21.7126 41.819 21.4745 42.1896C21.2363 42.5603 21.1526 43.0121 21.2415 43.4457C21.3305 43.8792 21.5849 44.259 21.9489 44.5016C23.4254 45.4857 24.501 45.8642 25.8507 45.9859V46.9864C25.8507 47.4293 26.0235 47.854 26.331 48.1672C26.6385 48.4804 27.0555 48.6563 27.4904 48.6563C27.9253 48.6563 28.3424 48.4804 28.6499 48.1672C28.9574 47.854 29.1301 47.4293 29.1301 46.9864V45.8375C34.8641 44.3531 35.9907 35.9812 29.9668 33.8141V33.8126ZM25.8507 31.9601C25.7049 31.8666 25.5738 31.7701 25.4513 31.6721C24.7532 31.114 24.8567 29.4455 25.8507 28.6276V31.9601ZM29.1301 42.2602V37.0648C31.5234 38.1232 30.9506 41.1617 29.1301 42.2602Z" fill="url(#paint5_linear_6_63)"/>
<defs>
<linearGradient id="paint0_linear_6_63" x1="12.5795" y1="9.93183" x2="60.6812" y2="39.1481" gradientUnits="userSpaceOnUse">
<stop stop-color="#289328"/>
<stop offset="1" stop-color="#66D05E"/>
</linearGradient>
<linearGradient id="paint1_linear_6_63" x1="12.5795" y1="9.93183" x2="60.6812" y2="39.1481" gradientUnits="userSpaceOnUse">
<stop stop-color="#289328"/>
<stop offset="1" stop-color="#66D05E"/>
</linearGradient>
<linearGradient id="paint2_linear_6_63" x1="12.5795" y1="9.93183" x2="60.6812" y2="39.1481" gradientUnits="userSpaceOnUse">
<stop stop-color="#289328"/>
<stop offset="1" stop-color="#66D05E"/>
</linearGradient>
<linearGradient id="paint3_linear_6_63" x1="12.5795" y1="9.93183" x2="60.6812" y2="39.1481" gradientUnits="userSpaceOnUse">
<stop stop-color="#289328"/>
<stop offset="1" stop-color="#66D05E"/>
</linearGradient>
<linearGradient id="paint4_linear_6_63" x1="12.5795" y1="9.93183" x2="60.6812" y2="39.1481" gradientUnits="userSpaceOnUse">
<stop stop-color="#289328"/>
<stop offset="1" stop-color="#66D05E"/>
</linearGradient>
<linearGradient id="paint5_linear_6_63" x1="12.5795" y1="9.93183" x2="60.6812" y2="39.1481" gradientUnits="userSpaceOnUse">
<stop stop-color="#289328"/>
<stop offset="1" stop-color="#66D05E"/>
</linearGradient>
</defs>
</svg>
