<svg width="29" height="29" viewBox="0 0 29 29" fill="none" xmlns="http://www.w3.org/2000/svg"><path fill-rule="evenodd" clip-rule="evenodd" d="M28.127 10.377c-.384 1.692-.765 3.383-1.15 5.075-.78-.99-1.49-2.035-2.237-3.048.33-1.321.627-2.651.928-3.98.227-1.023.35-2.119.007-3.131-.61-1.678-2.565-2.709-4.292-2.289-1.498.321-2.717 1.297-4.019 2.043-3.391 1.968-7.016 3.478-10.556 5.142.3-.513.802-.852 1.219-1.26 2.576-2.365 5.43-4.397 8.234-6.479C17.947 1.208 19.903.13 22.05.114c2.085-.103 4.142.936 5.414 2.572.888 1.164 1.282 2.656 1.23 4.112.023 1.218-.306 2.4-.568 3.58ZM3.104 23.476c.6 1.743 2.658 2.783 4.421 2.3 1.408-.315 2.55-1.242 3.779-1.944 3.43-2.027 7.126-3.535 10.72-5.233-1.9 2.08-4.181 3.764-6.412 5.468-2.085 1.484-4.02 3.271-6.45 4.179-1.769.62-3.824.664-5.508-.23C1.866 27.169.49 25.445.198 23.47c-.23-1.252-.108-2.537.176-3.769.477-2.121.965-4.238 1.437-6.359a97.3 97.3 0 0 1 2.237 3.073c-.335 1.312-.618 2.637-.923 3.957-.234 1.012-.382 2.1-.021 3.102Z" fill="#2B5AE1"/><path fill-rule="evenodd" clip-rule="evenodd" d="M27.988 24.906c-.823 1.752-2.441 3.155-4.374 3.516-2.197.5-4.387-.26-6.522-.706-1.27-.29-2.543-.57-3.812-.866.956-.794 2.015-1.454 2.992-2.22 1.47.318 2.93.688 4.405.995 1.167.224 2.48.244 3.498-.45 1.182-.832 1.868-2.372 1.563-3.798-.171-.947-.631-1.806-1.142-2.611-2.437-3.801-4.182-7.979-6.045-12.073 2.059 1.936 3.775 4.195 5.479 6.438 1.358 1.927 2.988 3.705 3.937 5.884.8 1.848.957 4.06.021 5.89ZM7.92 2.952c-1.159-.215-2.47-.25-3.474.46-.999.703-1.657 1.913-1.6 3.144-.009 1.343.714 2.538 1.418 3.633 2.22 3.495 3.795 7.332 5.552 11.064.1.23.163.474.223.719a72.682 72.682 0 0 1-5.81-7.025c-1.38-1.909-2.995-3.72-3.796-5.969-.63-1.771-.608-3.822.302-5.494C1.45 2.072 2.68.904 4.194.388 5.717-.156 7.389-.067 8.947.28c2.13.484 4.263.962 6.392 1.451-.967.79-2.01 1.483-3.011 2.228-1.468-.344-2.934-.694-4.408-1.006Z" fill="#E63A28"/></svg>