<svg width="13" height="14" viewBox="0 0 13 14" fill="none" xmlns="http://www.w3.org/2000/svg">
<path fill-rule="evenodd" clip-rule="evenodd" d="M5.86292 0C9.09578 0 11.7258 2.83268 11.7258 6.31398C11.7258 7.5475 11.3947 8.69976 10.8248 9.67341L12.6187 11.6053C13.1271 12.1531 13.1271 13.0419 12.6187 13.5897C12.1097 14.1368 11.2845 14.1368 10.7762 13.5897L8.9822 11.6571C8.07837 12.2714 7.00828 12.628 5.86292 12.628C2.63007 12.628 0 9.79529 0 6.31398C0 2.83268 2.63007 0 5.86292 0ZM5.86292 11.2242C8.37736 11.2242 10.4224 9.02128 10.4224 6.31398C10.4224 3.60599 8.37736 1.40303 5.86292 1.40303C3.34848 1.40303 1.30272 3.60599 1.30272 6.31398C1.30272 9.02128 3.34848 11.2242 5.86292 11.2242Z" fill="#222222"/>
</svg>
