<svg width="39" height="40" viewBox="0 0 39 40" fill="none" xmlns="http://www.w3.org/2000/svg">
<path fill-rule="evenodd" clip-rule="evenodd" d="M19.9168 0.917236C30.4559 0.917236 38.9997 9.46101 38.9997 20.0001C38.9997 30.5391 30.4559 39.0829 19.9168 39.0829C9.37775 39.0829 0.833984 30.5391 0.833984 20.0001C0.833984 9.46101 9.37775 0.917236 19.9168 0.917236Z" fill="#E63A28"/>
<path d="M22.7941 20.286C23.0408 20.286 23.2414 20.0595 23.2414 19.7812C23.2414 19.5029 23.0408 19.2764 22.7941 19.2764C22.5475 19.2764 22.3469 19.5029 22.3469 19.7812C22.3469 20.0595 22.5475 20.286 22.7941 20.286Z" fill="#7828E6"/>
<path d="M17.0395 20.286C17.2861 20.286 17.4868 20.0596 17.4868 19.7812C17.4868 19.5029 17.2861 19.2764 17.0395 19.2764C16.7929 19.2764 16.5923 19.5029 16.5923 19.7812C16.5923 20.0596 16.7929 20.286 17.0395 20.286Z" fill="#7828E6"/>
<path d="M27.5472 27.8355L26.4434 16.6963C26.4181 16.4408 26.2267 16.2476 25.9989 16.2476H23.2414V18.3537C23.762 18.5621 24.1359 19.1232 24.1359 19.7812C24.1359 20.6162 23.534 21.2956 22.7941 21.2956C22.0543 21.2956 21.4524 20.6162 21.4524 19.7812C21.4524 19.1231 21.8263 18.5621 22.3469 18.3537V16.2476H17.4868V18.3537C18.0073 18.5621 18.3813 19.1232 18.3813 19.7812C18.3813 20.6162 17.7793 21.2956 17.0395 21.2956C16.2997 21.2956 15.6977 20.6162 15.6977 19.7812C15.6977 19.1231 16.0717 18.5621 16.5922 18.3537V16.2476H13.8333C13.6055 16.2476 13.414 16.4409 13.3888 16.6964L12.2865 27.8356C12.2723 27.9783 12.3128 28.1211 12.3976 28.2281C12.4825 28.3352 12.6037 28.3964 12.731 28.3964H27.1027C27.23 28.3964 27.3513 28.3352 27.4361 28.2281C27.521 28.1211 27.5613 27.9782 27.5472 27.8355Z" fill="white"/>
<path d="M17.4868 15.3558C17.4868 13.8435 18.5769 12.6131 19.9169 12.6131C21.2568 12.6131 22.3469 13.8435 22.3469 15.3558V16.2476H23.2414V15.3558C23.2414 13.2868 21.75 11.6035 19.9169 11.6035C18.0837 11.6035 16.5923 13.2868 16.5923 15.3558L16.5922 16.2476H17.4868L17.4868 15.3558Z" fill="white"/>
</svg>
