<svg width="18" height="15" viewBox="0 0 18 15" fill="none" xmlns="http://www.w3.org/2000/svg"><path d="M14.625 14A3.376 3.376 0 0 0 18 10.625v-6.75A3.376 3.376 0 0 0 14.625.5h-2.953a.428.428 0 0 0-.422.422v1.406c0 .246.176.422.422.422h2.953c.598 0 1.125.527 1.125 1.125v6.75c0 .633-.527 1.125-1.125 1.125h-2.953a.427.427 0 0 0-.422.422v1.406c0 .246.176.422.422.422h2.953Zm-1.652-7.066L7.066 1.027C6.54.5 5.625.887 5.625 1.625V5H.844A.833.833 0 0 0 0 5.844v3.375c0 .492.352.844.844.844h4.781v3.374c0 .774.914 1.126 1.441.598l5.907-5.906c.316-.316.316-.844 0-1.195Z" fill="#E63A28"/></svg>