<svg width="82" height="18" viewBox="0 0 82 18" fill="none" xmlns="http://www.w3.org/2000/svg">
<path d="M9.01562 2.20312L11.1562 6.67188L16.0469 7.39062L12.5156 10.9219L12.625 11.625L13.3438 15.8438L9.01562 13.5312L4.6875 15.8438L5.40625 11.625L5.51562 10.9219L1.98438 7.39062L6.85938 6.67188L7.1875 6L9.01562 2.20312ZM9.01562 1.25C8.78646 1.25 8.57812 1.30729 8.39062 1.42188C8.20312 1.53646 8.0625 1.69271 7.96875 1.89062L6.15625 5.65625L1.98438 6.26562C1.77604 6.29688 1.58854 6.38021 1.42188 6.51562C1.25521 6.65104 1.13542 6.82292 1.0625 7.03125C0.916667 7.45833 1.01042 7.83854 1.34375 8.17188L4.39062 11.2188L3.6875 15.4531C3.64583 15.6615 3.66667 15.8646 3.75 16.0625C3.84375 16.2604 3.97917 16.4219 4.15625 16.5469C4.1875 16.5677 4.21875 16.5885 4.25 16.6094C4.29167 16.6302 4.32812 16.6458 4.35938 16.6562C4.40104 16.6771 4.4375 16.6927 4.46875 16.7031C4.51042 16.7135 4.54688 16.724 4.57812 16.7344C4.61979 16.7448 4.66146 16.75 4.70312 16.75C4.74479 16.75 4.78646 16.75 4.82812 16.75C5.02604 16.75 5.20833 16.7031 5.375 16.6094L9.01562 14.6562L12.6406 16.6094C12.7344 16.6615 12.8281 16.6979 12.9219 16.7188C13.0156 16.7396 13.1094 16.75 13.2031 16.75C13.4531 16.75 13.6771 16.6823 13.875 16.5469C14.0521 16.4219 14.1823 16.2604 14.2656 16.0625C14.3594 15.8646 14.3854 15.6615 14.3438 15.4531L13.6406 11.2188L16.6875 8.17188C17.0208 7.83854 17.1146 7.45833 16.9688 7.03125C16.8958 6.82292 16.776 6.65104 16.6094 6.51562C16.4427 6.38021 16.2552 6.29688 16.0469 6.26562L11.875 5.65625L10.0625 1.89062C10.0417 1.83854 10.0156 1.79167 9.98438 1.75C9.95312 1.70833 9.91667 1.66667 9.875 1.625C9.84375 1.58333 9.80729 1.54688 9.76562 1.51562C9.72396 1.47396 9.67708 1.44271 9.625 1.42188C9.58333 1.39062 9.53646 1.36458 9.48438 1.34375C9.44271 1.32292 9.39583 1.30729 9.34375 1.29688C9.29167 1.27604 9.23438 1.26562 9.17188 1.26562C9.11979 1.25521 9.06771 1.25 9.01562 1.25Z" fill="#CDB010"/>
<path d="M25.1345 2.20312L27.2751 6.67188L32.1658 7.39062L28.6345 10.9219L28.7439 11.625L29.4626 15.8438L25.1345 13.5312L20.8064 15.8438L21.5251 11.625L21.6345 10.9219L18.1033 7.39062L22.9783 6.67188L23.3064 6L25.1345 2.20312ZM25.1345 1.25C24.9054 1.25 24.697 1.30729 24.5095 1.42188C24.322 1.53646 24.1814 1.69271 24.0876 1.89062L22.2751 5.65625L18.1033 6.26562C17.8949 6.29688 17.7074 6.38021 17.5408 6.51562C17.3741 6.65104 17.2543 6.82292 17.1814 7.03125C17.0356 7.45833 17.1293 7.83854 17.4626 8.17188L20.5095 11.2188L19.8064 15.4531C19.7647 15.6615 19.7856 15.8646 19.8689 16.0625C19.9626 16.2604 20.0981 16.4219 20.2751 16.5469C20.3064 16.5677 20.3376 16.5885 20.3689 16.6094C20.4106 16.6302 20.447 16.6458 20.4783 16.6562C20.5199 16.6771 20.5564 16.6927 20.5876 16.7031C20.6293 16.7135 20.6658 16.724 20.697 16.7344C20.7387 16.7448 20.7804 16.75 20.822 16.75C20.8637 16.75 20.9054 16.75 20.947 16.75C21.1449 16.75 21.3272 16.7031 21.4939 16.6094L25.1345 14.6562L28.7595 16.6094C28.8533 16.6615 28.947 16.6979 29.0408 16.7188C29.1345 16.7396 29.2283 16.75 29.322 16.75C29.572 16.75 29.796 16.6823 29.9939 16.5469C30.171 16.4219 30.3012 16.2604 30.3845 16.0625C30.4783 15.8646 30.5043 15.6615 30.4626 15.4531L29.7595 11.2188L32.8064 8.17188C33.1397 7.83854 33.2335 7.45833 33.0876 7.03125C33.0147 6.82292 32.8949 6.65104 32.7283 6.51562C32.5616 6.38021 32.3741 6.29688 32.1658 6.26562L27.9939 5.65625L26.1814 1.89062C26.1606 1.83854 26.1345 1.79167 26.1033 1.75C26.072 1.70833 26.0356 1.66667 25.9939 1.625C25.9626 1.58333 25.9262 1.54688 25.8845 1.51562C25.8429 1.47396 25.796 1.44271 25.7439 1.42188C25.7022 1.39062 25.6554 1.36458 25.6033 1.34375C25.5616 1.32292 25.5147 1.30729 25.4626 1.29688C25.4106 1.27604 25.3533 1.26562 25.2908 1.26562C25.2387 1.25521 25.1866 1.25 25.1345 1.25Z" fill="#CDB010"/>
<path d="M41.2537 2.20312L43.3943 6.67188L48.2849 7.39062L44.7537 10.9219L44.863 11.625L45.5818 15.8438L41.2537 13.5312L36.9255 15.8438L37.6443 11.625L37.7537 10.9219L34.2224 7.39062L39.0974 6.67188L39.4255 6L41.2537 2.20312ZM41.2537 1.25C41.0245 1.25 40.8162 1.30729 40.6287 1.42188C40.4412 1.53646 40.3005 1.69271 40.2068 1.89062L38.3943 5.65625L34.2224 6.26562C34.0141 6.29688 33.8266 6.38021 33.6599 6.51562C33.4932 6.65104 33.3735 6.82292 33.3005 7.03125C33.1547 7.45833 33.2485 7.83854 33.5818 8.17188L36.6287 11.2188L35.9255 15.4531C35.8839 15.6615 35.9047 15.8646 35.988 16.0625C36.0818 16.2604 36.2172 16.4219 36.3943 16.5469C36.4255 16.5677 36.4568 16.5885 36.488 16.6094C36.5297 16.6302 36.5662 16.6458 36.5974 16.6562C36.6391 16.6771 36.6755 16.6927 36.7068 16.7031C36.7485 16.7135 36.7849 16.724 36.8162 16.7344C36.8578 16.7448 36.8995 16.75 36.9412 16.75C36.9828 16.75 37.0245 16.75 37.0662 16.75C37.2641 16.75 37.4464 16.7031 37.613 16.6094L41.2537 14.6562L44.8787 16.6094C44.9724 16.6615 45.0662 16.6979 45.1599 16.7188C45.2537 16.7396 45.3474 16.75 45.4412 16.75C45.6912 16.75 45.9151 16.6823 46.113 16.5469C46.2901 16.4219 46.4203 16.2604 46.5037 16.0625C46.5974 15.8646 46.6235 15.6615 46.5818 15.4531L45.8787 11.2188L48.9255 8.17188C49.2589 7.83854 49.3526 7.45833 49.2068 7.03125C49.1339 6.82292 49.0141 6.65104 48.8474 6.51562C48.6807 6.38021 48.4932 6.29688 48.2849 6.26562L44.113 5.65625L42.3005 1.89062C42.2797 1.83854 42.2537 1.79167 42.2224 1.75C42.1912 1.70833 42.1547 1.66667 42.113 1.625C42.0818 1.58333 42.0453 1.54688 42.0037 1.51562C41.962 1.47396 41.9151 1.44271 41.863 1.42188C41.8214 1.39062 41.7745 1.36458 41.7224 1.34375C41.6807 1.32292 41.6339 1.30729 41.5818 1.29688C41.5297 1.27604 41.4724 1.26562 41.4099 1.26562C41.3578 1.25521 41.3057 1.25 41.2537 1.25Z" fill="#CDB010"/>
<path d="M57.3726 2.20312L59.5132 6.67188L64.4038 7.39062L60.8726 10.9219L60.9819 11.625L61.7007 15.8438L57.3726 13.5312L53.0444 15.8438L53.7632 11.625L53.8726 10.9219L50.3413 7.39062L55.2163 6.67188L55.5444 6L57.3726 2.20312ZM57.3726 1.25C57.1434 1.25 56.9351 1.30729 56.7476 1.42188C56.5601 1.53646 56.4194 1.69271 56.3257 1.89062L54.5132 5.65625L50.3413 6.26562C50.133 6.29688 49.9455 6.38021 49.7788 6.51562C49.6121 6.65104 49.4924 6.82292 49.4194 7.03125C49.2736 7.45833 49.3674 7.83854 49.7007 8.17188L52.7476 11.2188L52.0444 15.4531C52.0028 15.6615 52.0236 15.8646 52.1069 16.0625C52.2007 16.2604 52.3361 16.4219 52.5132 16.5469C52.5444 16.5677 52.5757 16.5885 52.6069 16.6094C52.6486 16.6302 52.6851 16.6458 52.7163 16.6562C52.758 16.6771 52.7944 16.6927 52.8257 16.7031C52.8674 16.7135 52.9038 16.724 52.9351 16.7344C52.9767 16.7448 53.0184 16.75 53.0601 16.75C53.1017 16.75 53.1434 16.75 53.1851 16.75C53.383 16.75 53.5653 16.7031 53.7319 16.6094L57.3726 14.6562L60.9976 16.6094C61.0913 16.6615 61.1851 16.6979 61.2788 16.7188C61.3726 16.7396 61.4663 16.75 61.5601 16.75C61.8101 16.75 62.034 16.6823 62.2319 16.5469C62.409 16.4219 62.5392 16.2604 62.6226 16.0625C62.7163 15.8646 62.7424 15.6615 62.7007 15.4531L61.9976 11.2188L65.0444 8.17188C65.3778 7.83854 65.4715 7.45833 65.3257 7.03125C65.2528 6.82292 65.133 6.65104 64.9663 6.51562C64.7996 6.38021 64.6121 6.29688 64.4038 6.26562L60.2319 5.65625L58.4194 1.89062C58.3986 1.83854 58.3726 1.79167 58.3413 1.75C58.3101 1.70833 58.2736 1.66667 58.2319 1.625C58.2007 1.58333 58.1642 1.54688 58.1226 1.51562C58.0809 1.47396 58.034 1.44271 57.9819 1.42188C57.9403 1.39062 57.8934 1.36458 57.8413 1.34375C57.7996 1.32292 57.7528 1.30729 57.7007 1.29688C57.6486 1.27604 57.5913 1.26562 57.5288 1.26562C57.4767 1.25521 57.4246 1.25 57.3726 1.25Z" fill="#CDB010"/>
<path d="M73.4915 2.20312L75.6321 6.67188L80.5227 7.39062L76.9915 10.9219L77.1008 11.625L77.8196 15.8438L73.4915 13.5312L69.1633 15.8438L69.8821 11.625L69.9915 10.9219L66.4602 7.39062L71.3352 6.67188L71.6633 6L73.4915 2.20312ZM73.4915 1.25C73.2623 1.25 73.054 1.30729 72.8665 1.42188C72.679 1.53646 72.5383 1.69271 72.4446 1.89062L70.6321 5.65625L66.4602 6.26562C66.2519 6.29688 66.0644 6.38021 65.8977 6.51562C65.731 6.65104 65.6112 6.82292 65.5383 7.03125C65.3925 7.45833 65.4862 7.83854 65.8196 8.17188L68.8665 11.2188L68.1633 15.4531C68.1217 15.6615 68.1425 15.8646 68.2258 16.0625C68.3196 16.2604 68.455 16.4219 68.6321 16.5469C68.6633 16.5677 68.6946 16.5885 68.7258 16.6094C68.7675 16.6302 68.804 16.6458 68.8352 16.6562C68.8769 16.6771 68.9133 16.6927 68.9446 16.7031C68.9862 16.7135 69.0227 16.724 69.054 16.7344C69.0956 16.7448 69.1373 16.75 69.179 16.75C69.2206 16.75 69.2623 16.75 69.304 16.75C69.5019 16.75 69.6842 16.7031 69.8508 16.6094L73.4915 14.6562L77.1165 16.6094C77.2102 16.6615 77.304 16.6979 77.3977 16.7188C77.4915 16.7396 77.5852 16.75 77.679 16.75C77.929 16.75 78.1529 16.6823 78.3508 16.5469C78.5279 16.4219 78.6581 16.2604 78.7415 16.0625C78.8352 15.8646 78.8612 15.6615 78.8196 15.4531L78.1165 11.2188L81.1633 8.17188C81.4967 7.83854 81.5904 7.45833 81.4446 7.03125C81.3717 6.82292 81.2519 6.65104 81.0852 6.51562C80.9185 6.38021 80.731 6.29688 80.5227 6.26562L76.3508 5.65625L74.5383 1.89062C74.5175 1.83854 74.4915 1.79167 74.4602 1.75C74.429 1.70833 74.3925 1.66667 74.3508 1.625C74.3196 1.58333 74.2831 1.54688 74.2415 1.51562C74.1998 1.47396 74.1529 1.44271 74.1008 1.42188C74.0592 1.39062 74.0123 1.36458 73.9602 1.34375C73.9185 1.32292 73.8717 1.30729 73.8196 1.29688C73.7675 1.27604 73.7102 1.26562 73.6477 1.26562C73.5956 1.25521 73.5435 1.25 73.4915 1.25Z" fill="#CDB010"/>
</svg>
